<svg xmlns="http://www.w3.org/2000/svg" xmlns:xlink="http://www.w3.org/1999/xlink" width="500" zoomAndPan="magnify" viewBox="0 0 375 374.999991" height="500" preserveAspectRatio="xMidYMid meet" version="1.0"><defs><g/><clipPath id="f07f00fa2a"><path d="M 8 141 L 94 141 L 94 225 L 8 225 Z M 8 141 " clip-rule="nonzero"/></clipPath><clipPath id="8f06aaca2c"><path d="M 8.699219 159.113281 L 25.578125 141.582031 L 93.089844 206.589844 L 76.210938 224.117188 Z M 8.699219 159.113281 " clip-rule="nonzero"/></clipPath><clipPath id="8affc6bffb"><path d="M 8.699219 159.113281 L 25.578125 141.582031 L 93.046875 206.546875 L 76.167969 224.078125 Z M 8.699219 159.113281 " clip-rule="nonzero"/></clipPath><clipPath id="70420a0fdc"><path d="M 20 138 L 82 138 L 82 202 L 20 202 Z M 20 138 " clip-rule="nonzero"/></clipPath><clipPath id="13ef1e9c30"><path d="M 37.988281 201.0625 L 20.339844 184.308594 L 63.785156 138.53125 L 81.4375 155.28125 Z M 37.988281 201.0625 " clip-rule="nonzero"/></clipPath><clipPath id="d996fe57d4"><path d="M 37.988281 201.0625 L 20.339844 184.308594 L 63.734375 138.582031 L 81.386719 155.332031 Z M 37.988281 201.0625 " clip-rule="nonzero"/></clipPath><clipPath id="f40906edc6"><path d="M 42 111 L 106 111 L 106 172 L 42 172 Z M 42 111 " clip-rule="nonzero"/></clipPath><clipPath id="7511b92a02"><path d="M 105.503906 154.074219 L 88.972656 171.929688 L 42.664062 129.046875 L 59.195312 111.191406 Z M 105.503906 154.074219 " clip-rule="nonzero"/></clipPath><clipPath id="1503ca37b4"><path d="M 105.503906 154.074219 L 88.972656 171.929688 L 42.714844 129.097656 L 59.25 111.242188 Z M 105.503906 154.074219 " clip-rule="nonzero"/></clipPath><clipPath id="d88b57b2f8"><path d="M 30 142 L 90 142 L 90 202 L 30 202 Z M 30 142 " clip-rule="nonzero"/></clipPath><clipPath id="fb1f0df7da"><path d="M 48.648438 201.65625 L 30.996094 184.90625 L 71.566406 142.15625 L 89.214844 158.90625 Z M 48.648438 201.65625 " clip-rule="nonzero"/></clipPath><clipPath id="39b5fc3b84"><path d="M 48.648438 201.65625 L 30.996094 184.90625 L 71.527344 142.195312 L 89.179688 158.949219 Z M 48.648438 201.65625 " clip-rule="nonzero"/></clipPath></defs><g clip-path="url(#f07f00fa2a)"><g clip-path="url(#8f06aaca2c)"><g clip-path="url(#8affc6bffb)"><path fill="#22263e" d="M 8.699219 159.113281 L 25.578125 141.582031 L 93.019531 206.523438 L 76.140625 224.054688 Z M 8.699219 159.113281 " fill-opacity="1" fill-rule="nonzero"/></g></g></g><g clip-path="url(#70420a0fdc)"><g clip-path="url(#13ef1e9c30)"><g clip-path="url(#d996fe57d4)"><path fill="#22263e" d="M 37.988281 201.0625 L 20.339844 184.308594 L 63.722656 138.597656 L 81.371094 155.347656 Z M 37.988281 201.0625 " fill-opacity="1" fill-rule="nonzero"/></g></g></g><g clip-path="url(#f40906edc6)"><g clip-path="url(#7511b92a02)"><g clip-path="url(#1503ca37b4)"><path fill="#22263e" d="M 105.503906 154.074219 L 88.972656 171.929688 L 42.730469 129.113281 L 59.265625 111.257812 Z M 105.503906 154.074219 " fill-opacity="1" fill-rule="nonzero"/></g></g></g><g clip-path="url(#d88b57b2f8)"><g clip-path="url(#fb1f0df7da)"><g clip-path="url(#39b5fc3b84)"><path fill="#970c10" d="M 48.648438 201.65625 L 30.996094 184.90625 L 71.5 142.226562 L 89.152344 158.976562 Z M 48.648438 201.65625 " fill-opacity="1" fill-rule="nonzero"/></g></g></g><g fill="#22263e" fill-opacity="1"><g transform="translate(105.51829, 189.645658)"><g><path d="M 6.125 -4.09375 C 3.03125 -7.46875 1.484375 -11.601562 1.484375 -16.5 C 1.484375 -21.40625 3.03125 -25.554688 6.125 -28.953125 C 9.21875 -32.347656 13.148438 -34.046875 17.921875 -34.046875 C 22.304688 -34.046875 25.921875 -32.671875 28.765625 -29.921875 L 28.765625 -33.078125 L 40.171875 -33.078125 L 40.171875 0 L 28.890625 0 L 28.890625 -3.734375 L 28.765625 -3.734375 C 25.921875 -0.597656 22.304688 0.96875 17.921875 0.96875 C 13.148438 0.96875 9.21875 -0.71875 6.125 -4.09375 Z M 15.828125 -22.109375 C 14.347656 -20.648438 13.609375 -18.78125 13.609375 -16.5 C 13.609375 -14.226562 14.316406 -12.367188 15.734375 -10.921875 C 17.148438 -9.484375 19.019531 -8.765625 21.34375 -8.765625 C 23.582031 -8.765625 25.421875 -9.492188 26.859375 -10.953125 C 28.296875 -12.421875 29.015625 -14.273438 29.015625 -16.515625 C 29.015625 -18.785156 28.269531 -20.648438 26.78125 -22.109375 C 25.300781 -23.578125 23.488281 -24.3125 21.34375 -24.3125 C 19.15625 -24.3125 17.316406 -23.578125 15.828125 -22.109375 Z M 15.828125 -22.109375 "/></g></g></g><g fill="#22263e" fill-opacity="1"><g transform="translate(149.562996, 189.645658)"><g><path d="M 3.875 0 L 3.875 -33.078125 L 15.28125 -33.078125 L 15.28125 -29.59375 L 15.40625 -29.59375 C 18.375 -32.5625 21.535156 -34.046875 24.890625 -34.046875 C 26.523438 -34.046875 28.144531 -33.832031 29.75 -33.40625 C 31.363281 -32.976562 32.910156 -32.3125 34.390625 -31.40625 C 35.878906 -30.5 37.085938 -29.21875 38.015625 -27.5625 C 38.941406 -25.90625 39.40625 -23.984375 39.40625 -21.796875 L 39.40625 0 L 27.984375 0 L 27.984375 -18.703125 C 27.984375 -20.421875 27.4375 -21.925781 26.34375 -23.21875 C 25.25 -24.507812 23.816406 -25.15625 22.046875 -25.15625 C 20.328125 -25.15625 18.769531 -24.488281 17.375 -23.15625 C 15.976562 -21.820312 15.28125 -20.335938 15.28125 -18.703125 L 15.28125 0 Z M 3.875 0 "/></g></g></g><g fill="#22263e" fill-opacity="1"><g transform="translate(192.188995, 189.645658)"><g><path d="M 6.125 -4.09375 C 3.03125 -7.46875 1.484375 -11.601562 1.484375 -16.5 C 1.484375 -21.40625 3.03125 -25.554688 6.125 -28.953125 C 9.21875 -32.347656 13.148438 -34.046875 17.921875 -34.046875 C 22.304688 -34.046875 25.921875 -32.671875 28.765625 -29.921875 L 28.765625 -55.453125 L 40.171875 -55.453125 L 40.171875 0 L 28.890625 0 L 28.890625 -3.734375 L 28.765625 -3.734375 C 25.921875 -0.597656 22.304688 0.96875 17.921875 0.96875 C 13.148438 0.96875 9.21875 -0.71875 6.125 -4.09375 Z M 15.828125 -22.109375 C 14.347656 -20.648438 13.609375 -18.78125 13.609375 -16.5 C 13.609375 -14.226562 14.316406 -12.367188 15.734375 -10.921875 C 17.148438 -9.484375 19.019531 -8.765625 21.34375 -8.765625 C 23.582031 -8.765625 25.421875 -9.492188 26.859375 -10.953125 C 28.296875 -12.421875 29.015625 -14.273438 29.015625 -16.515625 C 29.015625 -18.785156 28.269531 -20.648438 26.78125 -22.109375 C 25.300781 -23.578125 23.488281 -24.3125 21.34375 -24.3125 C 19.15625 -24.3125 17.316406 -23.578125 15.828125 -22.109375 Z M 15.828125 -22.109375 "/></g></g></g><g fill="#22263e" fill-opacity="1"><g transform="translate(236.233701, 189.645658)"><g><path d="M 28.953125 -33.078125 L 42.109375 -33.078125 L 16.125 16.765625 L 2.96875 16.765625 L 14.375 -5.15625 L -1.296875 -33.078125 L 11.859375 -33.078125 L 21.09375 -16.125 Z M 28.953125 -33.078125 "/></g></g></g><g fill="#970c10" fill-opacity="1"><g transform="translate(111.055946, 214.426229)"><g/></g></g><g fill="#970c10" fill-opacity="1"><g transform="translate(120.402415, 214.426229)"><g/></g></g><g fill="#970c10" fill-opacity="1"><g transform="translate(129.755852, 214.426229)"><g><path d="M 7.171875 -12.5 L 7.171875 0 L 5.28125 0 L 5.28125 -12.5 L 0.453125 -12.5 L 0.453125 -14.046875 L 12 -14.046875 L 12 -12.5 Z M 7.171875 -12.5 "/></g></g></g><g fill="#970c10" fill-opacity="1"><g transform="translate(145.899829, 214.426229)"><g/></g></g><g fill="#970c10" fill-opacity="1"><g transform="translate(155.246299, 214.426229)"><g><path d="M 1.671875 0 L 1.671875 -14.046875 L 12.328125 -14.046875 L 12.328125 -12.5 L 3.578125 -12.5 L 3.578125 -7.984375 L 11.734375 -7.984375 L 11.734375 -6.453125 L 3.578125 -6.453125 L 3.578125 -1.5625 L 12.75 -1.5625 L 12.75 0 Z M 1.671875 0 "/></g></g></g><g fill="#970c10" fill-opacity="1"><g transform="translate(172.536483, 214.426229)"><g/></g></g><g fill="#970c10" fill-opacity="1"><g transform="translate(181.882953, 214.426229)"><g><path d="M 7.890625 -12.703125 C 6.335938 -12.703125 5.128906 -12.203125 4.265625 -11.203125 C 3.398438 -10.203125 2.96875 -8.832031 2.96875 -7.09375 C 2.96875 -5.363281 3.414062 -3.972656 4.3125 -2.921875 C 5.21875 -1.878906 6.441406 -1.359375 7.984375 -1.359375 C 9.941406 -1.359375 11.421875 -2.332031 12.421875 -4.28125 L 13.96875 -3.515625 C 13.394531 -2.296875 12.582031 -1.367188 11.53125 -0.734375 C 10.488281 -0.109375 9.273438 0.203125 7.890625 0.203125 C 6.472656 0.203125 5.242188 -0.0859375 4.203125 -0.671875 C 3.171875 -1.265625 2.382812 -2.109375 1.84375 -3.203125 C 1.300781 -4.296875 1.03125 -5.59375 1.03125 -7.09375 C 1.03125 -9.332031 1.632812 -11.085938 2.84375 -12.359375 C 4.0625 -13.628906 5.738281 -14.265625 7.875 -14.265625 C 9.375 -14.265625 10.625 -13.96875 11.625 -13.375 C 12.625 -12.789062 13.363281 -11.925781 13.84375 -10.78125 L 12.03125 -10.1875 C 11.707031 -11 11.1875 -11.617188 10.46875 -12.046875 C 9.75 -12.484375 8.890625 -12.703125 7.890625 -12.703125 Z M 7.890625 -12.703125 "/></g></g></g><g fill="#970c10" fill-opacity="1"><g transform="translate(200.299412, 214.426229)"><g/></g></g><g fill="#970c10" fill-opacity="1"><g transform="translate(209.645879, 214.426229)"><g><path d="M 11.171875 0 L 11.171875 -6.515625 L 3.578125 -6.515625 L 3.578125 0 L 1.671875 0 L 1.671875 -14.046875 L 3.578125 -14.046875 L 3.578125 -8.109375 L 11.171875 -8.109375 L 11.171875 -14.046875 L 13.078125 -14.046875 L 13.078125 0 Z M 11.171875 0 "/></g></g></g></svg>